<?xml version="1.0" encoding="utf-8"?>
<!-- Generator: Adobe Illustrator 24.1.1, SVG Export Plug-In . SVG Version: 6.00 Build 0)  -->
<svg version="1.1" id="Layer_1" xmlns="http://www.w3.org/2000/svg" xmlns:xlink="http://www.w3.org/1999/xlink" x="0px" y="0px"
	 viewBox="0 0 1920 1080" style="enable-background:new 0 0 1920 1080;" xml:space="preserve">
<style type="text/css">
	.st0{fill:#FFFAF0;}
	.st1{fill:#F4F17B;stroke:#438521;stroke-width:8.1466;stroke-miterlimit:10;}
	.st2{fill:#844C17;stroke:#D4DC58;stroke-width:13.3262;stroke-miterlimit:10;}
	.st3{fill:#916846;}
	.st4{fill:#81A408;}
	.st5{fill:#F6A417;}
	.st6{fill:#DB800A;}
	.st7{fill:#E1E6E9;}
	.st8{fill:#D5D6DB;}
	.st9{fill:#DC8744;}
	.st10{opacity:0.1;fill:#EBF0F3;enable-background:new    ;}
	.st11{opacity:0.1;fill:#D5D6DB;enable-background:new    ;}
	.st12{opacity:0.25;fill:#EBF0F3;enable-background:new    ;}
</style>
<g>
	<rect y="0" class="st0" width="1920" height="1080"/>
</g>
<g>
	<g>
		<path class="st1" d="M1880.3,980c-5.4,51.7-54.8,89.4-110.2,84.4c-55.4-5.1-95.9-51.1-90.5-102.7c5.4-51.7,62.6-163.8,118-158.7
			C1853.1,807.9,1885.8,928.3,1880.3,980z"/>
	</g>
	<ellipse class="st2" cx="1779.4" cy="980.2" rx="55.9" ry="52.1"/>
	<ellipse class="st3" cx="1804.7" cy="991.8" rx="16" ry="14.9"/>
</g>
<g>
	<polygon class="st4" points="1361.5,761.8 1382.9,798.5 1422.1,792.7 1419.4,745 1406.1,771.7 1391.1,735 1394.7,769.8 1371,744.2 
		1385.2,774 	"/>
	<g>
		<path class="st5" d="M1468.2,866.6c0.2,1.5,0.5,3,0.7,4.5c0.5,3.1,0.9,6.2,1.4,9.4c2.1,14.5,3.9,29.9,5.3,45.5
			c0.3,3.2,0.6,6.4,0.8,9.5c2.6,32.1,3.3,63.9,1.1,87.5c-0.3,3.5-0.7,6.8-1.2,9.9c-2.5,16-6.8,26.4-13.6,27.8
			c-9.3,1.9-21.9-13.3-35.2-36.8c-1.6-2.8-3.2-5.7-4.8-8.7c-13.1-24.8-26.6-56.7-37.8-87.4c-1.1-3-2.2-6-3.3-9
			c-4-11.2-7.6-22.2-10.8-32.4L1468.2,866.6z"/>
		<path class="st5" d="M1465.2,847.8c1.3,5.3,2.3,11.8,3,18.8l-97.4,19.7c-1.8-4.9-3.4-9.6-4.5-13.8c-0.4-1.5-0.8-2.9-1.1-4.3
			c-0.4-1.7-0.7-3.3-1-5c-4.8-27,2.9-52.1,18.7-64.8c4.8-3.9,10.3-6.6,16.5-7.8c7.6-1.5,15.3-0.7,22.7,2c13.9,5.1,26.6,17.1,35,33.3
			c1.5,2.8,2.8,5.8,4.1,8.9C1462.8,838.9,1464.2,843.3,1465.2,847.8z"/>
	</g>
	<path class="st6" d="M1461.2,834.8l-23.2,4.7c-1.3,0.3-2.6-0.6-2.9-1.9l-1.1-4.5c-0.3-1.3,0.5-2.6,1.8-2.8l21.3-4.3
		C1458.6,828.8,1460,831.7,1461.2,834.8z"/>
	<path class="st6" d="M1470.8,972.2l-56.4,11.4c-1.3,0.3-2.7-0.5-3-1.8l-1.1-4.7c-0.3-1.3,0.6-2.5,1.9-2.8l56.4-11.4
		c1.3-0.3,2.7,0.5,3,1.8l1.1,4.7C1473,970.7,1472.1,972,1470.8,972.2z"/>
	<path class="st6" d="M1475.6,926c0.3,3.2,0.6,6.4,0.8,9.5l-20.9,4.2c-1.3,0.3-2.6-0.6-2.9-1.9l-1.1-4.5c-0.3-1.3,0.5-2.6,1.8-2.8
		L1475.6,926z"/>
	<path class="st6" d="M1432.6,910.9l1.1,4.5c0.3,1.3-0.5,2.6-1.8,2.8l-47,9.5c-1.1-3-2.2-6-3.3-9l48.1-9.8
		C1431,908.8,1432.3,909.6,1432.6,910.9z"/>
	<path class="st6" d="M1400.4,858.4l1.1,4.5c0.3,1.3-0.5,2.6-1.8,2.8l-33.3,6.8c-0.4-1.5-0.8-2.9-1.1-4.3c-0.4-1.7-0.7-3.3-1-5
		l33.3-6.8C1398.8,856.2,1400.1,857.1,1400.4,858.4z"/>
	<path class="st6" d="M1468.9,871.1c0.5,3.1,0.9,6.2,1.4,9.4l-33.5,6.8c-1.3,0.3-2.6-0.6-2.9-1.9l-1.1-4.5c-0.3-1.3,0.5-2.6,1.8-2.8
		L1468.9,871.1z"/>
	<path class="st6" d="M1477.5,1023c-0.3,3.5-0.7,6.8-1.2,9.9l-14.3,2.9c-1.3,0.3-2.6-0.6-2.9-1.9l-1.1-4.5c-0.3-1.3,0.5-2.6,1.8-2.8
		L1477.5,1023z"/>
	<path class="st6" d="M1443.4,1013.5l1.1,4.5c0.3,1.3-0.5,2.6-1.8,2.8l-15.2,3.1c-1.6-2.8-3.2-5.7-4.8-8.7l17.8-3.6
		C1441.8,1011.4,1443.1,1012.2,1443.4,1013.5z"/>
	<path class="st6" d="M1411.7,827.8l-19.1,3.9c-0.8,0.2-1.6-0.3-1.8-1.1l-1.6-6.8c-0.2-0.8,0.3-1.5,1.2-1.7l19.1-3.9
		c0.8-0.2,1.6,0.3,1.8,1.1l1.6,6.8C1413,826.8,1412.5,827.6,1411.7,827.8z"/>
</g>
<g>
	<path class="st7" d="M1710.1,849.2c3.2-6.1,2.2-13.6-2.3-18.9c-3.2-3.7-7.5-5.9-12-6.6c-4.5-0.7-8.4-3.7-10.1-7.6
		c-1.7-3.9-4.8-7.4-9.4-9.5c-6.5-3.1-14.6-2.3-20.3,1.8c-6.4,4.6-8.7,11.6-7.2,18c2,8.9-0.7,18.1-6.8,25.1l-8,9.2l25.9,19.5l8-9.2
		c6.1-7,15.2-11.3,24.9-11.4C1699.7,859.5,1706.6,856,1710.1,849.2L1710.1,849.2z"/>
	<path class="st8" d="M1710.1,849.2c-3.5,6.8-10.4,10.3-17.4,10.4c-9.7,0.1-18.8,4.4-24.9,11.4l-7.9,9.2l-25.9-19.5l0,0l21,15.8
		l8-9.1c6.1-7,15.2-11.4,24.9-11.4c7-0.1,13.9-3.6,17.4-10.4c3.2-6.1,2.2-13.6-2.3-18.9c-0.2-0.2-0.4-0.5-0.6-0.7
		c2,1.1,3.9,2.6,5.5,4.5C1712.3,835.6,1713.3,843.1,1710.1,849.2L1710.1,849.2z"/>
	<path class="st9" d="M1671.8,874.4c-18.2,21-27.5,47.2-28.6,74.2c-0.7,17.7-8.2,36.6-22.3,52.9c-29.6,34.2-77.4,44-106.6,22
		c-8.9-6.7-15.1-15.6-18.5-25.7c-7.8-23-1.4-52.3,19.2-76.1c14.2-16.3,32.4-27,50.8-31.4c6.7-1.6,13.3-3.6,19.7-6.1
		c6.9-2.6,13.6-5.8,19.9-9.4c12.2-6.9,23.1-15.7,32.2-26.2c1.4-1.6,4-1.9,5.8-0.6l0.8,0.6l26.2,19.8l0.8,0.6
		C1672.9,870.3,1673.2,872.7,1671.8,874.4L1671.8,874.4z"/>
	<path class="st10" d="M1635.5,850.9c-27.6,29.2-63,37.7-69.8,39.3c-18.4,4.4-36.6,15.1-50.8,31.4c-20.6,23.8-27,53.1-19.2,76.1
		c13.6,14.8,33.3,24.2,55.3,24.2c41,0,74.3-32.7,74.3-73C1625.3,920.8,1659.2,863.1,1635.5,850.9z"/>
	<ellipse class="st11" cx="1556.6" cy="954.1" rx="45.4" ry="44.6"/>
	<ellipse class="st11" cx="1552.1" cy="943.3" rx="20.3" ry="20"/>
	<path class="st12" d="M1665.8,809.4c-6.6,0-11.9,5.2-11.9,11.7s5.3,11.7,11.9,11.7c6.6,0,11.9-5.2,11.9-11.7
		S1672.4,809.4,1665.8,809.4z"/>
</g>
</svg>
