<?xml version="1.0" encoding="utf-8"?>
<!-- Generator: Adobe Illustrator 24.1.1, SVG Export Plug-In . SVG Version: 6.00 Build 0)  -->
<svg version="1.1" id="Layer_1" xmlns="http://www.w3.org/2000/svg" xmlns:xlink="http://www.w3.org/1999/xlink" x="0px" y="0px"
	 viewBox="0 0 1920 1080" style="enable-background:new 0 0 1920 1080;" xml:space="preserve">
<style type="text/css">
	.st0{fill:#F4F17B;stroke:#438521;stroke-width:23.485;stroke-miterlimit:10;}
	.st1{fill:#844C17;stroke:#D4DC58;stroke-width:38.4168;stroke-miterlimit:10;}
	.st2{fill:#916846;}
	.st3{fill:#81A408;}
	.st4{fill:#F6A417;}
	.st5{fill:#DB800A;}
	.st6{fill:#E1E6E9;}
	.st7{fill:#D5D6DB;}
	.st8{fill:#DC8744;}
	.st9{opacity:0.1;fill:#EBF0F3;enable-background:new    ;}
	.st10{opacity:0.1;fill:#D5D6DB;enable-background:new    ;}
	.st11{opacity:0.25;fill:#EBF0F3;enable-background:new    ;}
</style>
<g>
	<g>
		<path class="st0" d="M1751.3,769.2c-15.7,148.9-157.9,257.8-317.7,243.2c-159.8-14.6-276.5-147.2-260.8-296.2
			s180.5-472.2,340.3-457.5C1672.8,273.3,1767,620.2,1751.3,769.2z"/>
	</g>
	<ellipse class="st1" cx="1460.4" cy="769.8" rx="161.1" ry="150.2"/>
	<ellipse class="st2" cx="1533.2" cy="803.2" rx="46.2" ry="43.1"/>
</g>
<g>
	<polygon class="st3" points="255.5,140.2 317.4,246 430.3,229.2 422.5,91.7 384.1,168.7 341.1,63 351.4,163.4 283,89.4 
		324.1,175.6 	"/>
	<g>
		<path class="st4" d="M563.3,442.4c0.7,4.3,1.4,8.6,2,12.9c1.4,8.9,2.7,17.9,4,27.1c5.9,41.7,11.1,86.3,15.2,131.3
			c0.8,9.1,1.6,18.3,2.3,27.5c7.4,92.6,9.6,184.3,3.1,252.2c-1,10.1-2.1,19.7-3.5,28.7c-7.1,46-19.6,76.1-39.2,80.1
			c-26.7,5.5-63.2-38.3-101.5-106.1c-4.6-8.1-9.1-16.5-13.7-25.2c-37.9-71.6-76.6-163.5-109-252c-3.2-8.7-6.3-17.4-9.4-26
			c-11.4-32.3-21.9-63.9-31.1-93.5L563.3,442.4z"/>
		<path class="st4" d="M554.6,388.1c3.6,15.4,6.5,33.9,8.7,54.2l-280.7,56.9c-5.3-14.2-9.7-27.7-13.1-39.9
			c-1.2-4.3-2.3-8.4-3.2-12.4c-1.1-4.8-2.1-9.5-2.9-14.3c-14-77.9,8.5-150.2,54-186.7c13.9-11.1,29.8-18.9,47.6-22.5
			c21.8-4.5,44-2.1,65.3,5.8c39.9,14.8,76.6,49.4,101,95.9c4.3,8.2,8.2,16.7,11.7,25.6C547.7,362.6,551.6,375.1,554.6,388.1z"/>
	</g>
	<path class="st5" d="M543,350.7l-66.8,13.6c-3.7,0.8-7.5-1.7-8.3-5.5l-3-13c-0.9-3.8,1.4-7.4,5.1-8.2l61.4-12.4
		C535.6,333.3,539.5,341.8,543,350.7z"/>
	<path class="st5" d="M570.7,746.9l-162.5,33c-3.9,0.8-7.7-1.5-8.6-5.1l-3.2-13.6c-0.8-3.6,1.6-7.2,5.5-8l162.5-33
		c3.9-0.8,7.7,1.5,8.6,5.1l3.2,13.6C577,742.6,574.6,746.1,570.7,746.9z"/>
	<path class="st5" d="M584.6,613.7c0.8,9.1,1.6,18.3,2.3,27.5l-60.4,12.2c-3.7,0.8-7.5-1.7-8.3-5.5l-3-13c-0.9-3.8,1.4-7.4,5.1-8.2
		L584.6,613.7z"/>
	<path class="st5" d="M460.7,570.1l3,13c0.9,3.8-1.4,7.4-5.1,8.2L323,618.9c-3.2-8.7-6.3-17.4-9.4-26l138.8-28.1
		C456.1,563.9,459.8,566.4,460.7,570.1z"/>
	<path class="st5" d="M367.7,418.7l3,13c0.9,3.8-1.4,7.4-5.1,8.2l-96.1,19.5c-1.2-4.3-2.3-8.4-3.2-12.4c-1.1-4.8-2.1-9.5-2.9-14.3
		l96-19.5C363.1,412.5,366.8,414.9,367.7,418.7z"/>
	<path class="st5" d="M565.3,455.3c1.4,8.9,2.7,17.9,4,27.1L472.9,502c-3.7,0.8-7.5-1.7-8.3-5.5l-3-13c-0.9-3.8,1.4-7.4,5.1-8.2
		L565.3,455.3z"/>
	<path class="st5" d="M590,893.4c-1,10.1-2.1,19.7-3.5,28.7l-41.2,8.4c-3.7,0.8-7.5-1.7-8.3-5.5l-3-13c-0.9-3.8,1.4-7.4,5.1-8.2
		L590,893.4z"/>
	<path class="st5" d="M491.7,865.9l3,13c0.9,3.8-1.4,7.4-5.1,8.2l-43.8,8.9c-4.6-8.1-9.1-16.5-13.7-25.2l51.3-10.4
		C487.1,859.7,490.8,862.1,491.7,865.9z"/>
	<path class="st5" d="M400.3,330.4l-55,11.1c-2.4,0.5-4.7-0.9-5.2-3.1l-4.6-19.6c-0.5-2.2,1-4.4,3.4-4.9l55-11.1
		c2.4-0.5,4.7,0.9,5.2,3.1l4.6,19.6C404.2,327.8,402.7,329.9,400.3,330.4z"/>
</g>
<g>
	<path class="st6" d="M1260.6,392.3c9.1-17.5,6.4-39.2-6.7-54.4c-9.3-10.8-21.7-17-34.5-19.1c-13-2-24.3-10.6-29.2-22
		c-4.8-11.3-14-21.2-27.2-27.5c-18.7-8.8-42-6.8-58.5,5.2c-18.3,13.3-24.9,33.5-20.9,51.9c5.6,25.5-1.9,52.1-19.5,72.3l-22.9,26.4
		l74.6,56.3l22.9-26.4c17.6-20.3,43.8-32.7,71.8-32.9C1230.6,422,1250.5,411.8,1260.6,392.3L1260.6,392.3z"/>
	<path class="st7" d="M1260.6,392.3c-10.2,19.5-30,29.7-50.1,29.9c-28,0.2-54.3,12.6-71.9,32.9l-22.9,26.5l-74.6-56.3l0.1-0.1
		l60.4,45.5l23-26.4c17.6-20.3,43.9-32.8,71.8-32.9c20.2-0.2,39.9-10.4,50.1-29.9c9.2-17.5,6.4-39.2-6.7-54.4
		c-0.6-0.7-1.2-1.3-1.9-2c5.8,3.2,11.3,7.5,15.9,12.9C1267,353.1,1269.7,374.7,1260.6,392.3L1260.6,392.3z"/>
	<path class="st8" d="M1150.1,464.8c-52.6,60.6-79.2,136.1-82.5,214c-2.1,51-23.6,105.5-64.4,152.4c-85.4,98.5-223,126.9-307.4,63.4
		c-25.6-19.3-43.4-44.9-53.3-74.1c-22.6-66.4-4.1-150.9,55.3-219.4c40.8-46.9,93.4-78,146.4-90.6c19.4-4.6,38.4-10.4,56.8-17.5
		c19.9-7.6,39.2-16.7,57.5-27c35.1-20,66.5-45.2,92.9-75.5c4.1-4.7,11.6-5.5,16.6-1.7l2.2,1.7l75.6,57.1l2.3,1.7
		C1153.4,453.1,1154.2,460.1,1150.1,464.8L1150.1,464.8z"/>
	<path class="st9" d="M1045.5,397.2c-79.7,84.3-181.7,108.6-201.1,113.2c-53,12.6-105.6,43.6-146.4,90.6
		c-59.4,68.6-77.9,153-55.3,219.4c39.3,42.8,96.1,69.7,159.3,69.7c118.3,0,214.2-94.3,214.2-210.6
		C1016.2,598.6,1113.8,432.4,1045.5,397.2z"/>
	<ellipse class="st10" cx="818" cy="694.6" rx="130.9" ry="128.7"/>
	<ellipse class="st10" cx="804.9" cy="663.6" rx="58.6" ry="57.6"/>
	<path class="st11" d="M1132.9,277.5c-18.9,0-34.3,15.1-34.3,33.6s15.4,33.6,34.3,33.6s34.3-15.1,34.3-33.6
		S1151.8,277.5,1132.9,277.5z"/>
</g>
</svg>
